<?xml version="1.0" encoding="UTF-8" standalone="no"?>
<svg
   xmlns:dc="http://purl.org/dc/elements/1.1/"
   xmlns:cc="http://creativecommons.org/ns#"
   xmlns:rdf="http://www.w3.org/1999/02/22-rdf-syntax-ns#"
   xmlns:svg="http://www.w3.org/2000/svg"
   xmlns="http://www.w3.org/2000/svg"
   xmlns:xlink="http://www.w3.org/1999/xlink"
   xmlns:sodipodi="http://sodipodi.sourceforge.net/DTD/sodipodi-0.dtd"
   xmlns:inkscape="http://www.inkscape.org/namespaces/inkscape"
   width="150px"
   height="380px"
   version="1.1"
   xml:space="preserve"
   style="fill-rule:evenodd;clip-rule:evenodd;stroke-linecap:round;"
   id="svg2"
   inkscape:version="0.91 r13725"
   sodipodi:docname="Flame_red.svg"><metadata
     id="metadata154"><rdf:RDF><cc:Work
         rdf:about=""><dc:format>image/svg+xml</dc:format><dc:type
           rdf:resource="http://purl.org/dc/dcmitype/StillImage" /><dc:title /></cc:Work></rdf:RDF></metadata><sodipodi:namedview
     pagecolor="#ffffff"
     bordercolor="#666666"
     borderopacity="1"
     objecttolerance="10"
     gridtolerance="10"
     guidetolerance="10"
     inkscape:pageopacity="0"
     inkscape:pageshadow="2"
     inkscape:window-width="1920"
     inkscape:window-height="1151"
     id="namedview152"
     showgrid="false"
     inkscape:zoom="3.5132042"
     inkscape:cx="81.789829"
     inkscape:cy="139.5714"
     inkscape:window-x="0"
     inkscape:window-y="0"
     inkscape:window-maximized="1"
     inkscape:current-layer="svg2" /><defs
     id="defs4"><linearGradient
       inkscape:collect="always"
       id="linearGradient4180"><stop
         style="stop-color:#666666;stop-opacity:1;"
         offset="0"
         id="stop4182" /><stop
         style="stop-color:#000000;stop-opacity:1"
         offset="1"
         id="stop4184" /></linearGradient><linearGradient
       inkscape:collect="always"
       id="linearGradient4647"><stop
         style="stop-color:#ffffff;stop-opacity:0"
         offset="0"
         id="stop4649" /><stop
         style="stop-color:#ffffff;stop-opacity:0.24766356"
         offset="1"
         id="stop4651" /></linearGradient><linearGradient
       inkscape:collect="always"
       xlink:href="#linearGradient4647"
       id="linearGradient4653"
       x1="68.313705"
       y1="258.42349"
       x2="68.313705"
       y2="281.12912"
       gradientUnits="userSpaceOnUse" /><linearGradient
       inkscape:collect="always"
       xlink:href="#linearGradient4180"
       id="linearGradient4186"
       x1="62.983978"
       y1="253.49675"
       x2="63.050053"
       y2="282.78171"
       gradientUnits="userSpaceOnUse" /></defs><rect
     style="fill:#1a1a1a;fill-opacity:1"
     height="380"
     width="150"
     y="0"
     x="0"
     id="rect9931" /><path
     inkscape:connector-curvature="0"
     style="clip-rule:evenodd;fill:#cd181f;fill-opacity:1;fill-rule:evenodd;stroke:none;stroke-width:1px;stroke-linecap:butt;stroke-linejoin:miter;stroke-opacity:1"
     d="m 101.12104,12.70215 -3.0332,2.16992 -3.04101,2.16797 -0.58204,3.1914 -0.58007,3.18164 c 7.43302,46.22728 19.28823,60.38323 23.05859,75.25391 2.0645,8.14275 -0.75365,22.41683 -1.39844,26.1875 0.006,0.51948 -0.0277,0.88355 -0.11719,1.01953 -0.0654,0.0994 0.002,-0.3463 0.11719,-1.01953 -0.0873,-7.2744 -9.71398,-51.15666 -33.46289,-104.78906 l -0.58008,1.15625 -0.58203,1.15625 -3.76367,-0.72461 -3.75781,-0.72266 -2.31836,2.60156 -2.31055,2.60352 -40.86328,32.70313 -12.49219,50.28125 -3.47265,1.8789 -3.47461,1.87891 -0.96289,25.3125 3.16992,37.38086 8.82617,22.69726 1.85547,15.78125 7.42187,4.53516 -3.62695,4.38867 -3.18945,6.37305 5.11719,12.12695 6.94726,30.37891 c 0,0 12.29409,12.37351 19.85352,14.79687 7.55937,2.42337 16.03484,-11.88296 21.96679,-4.21484 5.93169,7.66843 9.22014,4.24602 9.32813,13.03516 0.033,2.30317 -0.0493,4.47923 -0.17188,6.42968 -0.10831,1.70441 -0.25003,3.23523 -0.40234,4.54297 -0.3343,2.90742 -0.69336,4.69141 -0.69336,4.69141 0,0 -4.32294,-5.1742 -6.41992,8.67968 -2.09693,13.85362 -2.37008,19.97776 -3.23828,24.4629 -0.86786,4.4849 -0.14225,6.00143 0.79687,6.39843 0.94013,0.39753 3.46094,10.22852 3.46094,10.22852 l 13.24609,4.12891 14.61914,0.72265 28.64258,1.01367 14.98633,0.5293 0,-41.76367 -3.48047,0.3457 -8.18945,0.81641 -2.86133,-1.63867 -2.86328,-1.63086 -4.91211,0.61132 -4.9082,0.61329 -0.61328,11.86718 -0.61719,11.86719 -1.8418,-0.4082 -1.8418,-0.40821 1.63672,-11.05078 1.63867,-11.04492 -11.86718,-3.20312 -11.86719,2.38086 -1.43359,10.43359 -1.43555,10.43945 -2.04492,0.20117 -2.04688,0.20704 1.43555,-10.23047 1.43359,-10.22852 -5.52539,-0.61914 -5.52734,-0.61133 1.23047,-4.09179 1.23047,-4.0918 2.6582,-0.61914 2.66406,-0.61133 -0.41406,-6.54492 -0.4082,-6.55274 c 0,0 0.55884,-0.19586 1.32812,-0.4082 0.76878,-0.2126 1.74914,-0.43802 2.58789,-0.48828 l 0.002,0 c 0.50281,-0.0328 0.95031,-0.001 1.27734,0.13477 0.32771,0.13531 0.53125,0.37815 0.53125,0.76171 0,1.02314 0.30342,4.91398 0.61133,8.54688 0.30736,3.63246 0.61328,7.00976 0.61329,7.00976 l 12.68945,2.11915 12.68945,-0.89454 0,-7.98046 0,-7.98047 1.83594,1.02148 1.8418,1.02539 -0.20313,6.54492 -0.20117,6.55274 6.13672,0 6.13672,0 0.82422,1.42773 0.81445,1.4336 6.96094,-2.04493 4.29492,-1.26367 0,-57.21484 c -0.17413,0.60301 -0.35875,1.2641 -0.54883,2.01367 -0.6512,2.56786 -1.30469,5.82513 -1.30469,8.57422 0,2.74877 -0.14397,5.85788 -0.28906,8.28125 -0.14522,2.42336 -0.29101,4.16015 -0.29101,4.16015 l -1.97852,7.08985 -6.20508,0.7168 -3.57226,3.23242 c 0,0 -1.08258,-3.90322 -1.87891,-8.46094 -0.79595,-4.55747 2.06128,-12.4152 3.21875,-15.01953 1.15753,-2.6043 3.76144,-7.52705 6.07617,-11.79492 2.31431,-4.26779 4.33985,-7.88672 4.33985,-7.88672 1.14034,0.2861 1.92539,-0.0576 2.43359,-0.48242 l 0,-233.05664 -20.54492,1.09765 -28.33399,-5.79687 z m -50.80859,164.18945 13.59766,0.9375 20.52148,10.75781 23.21875,5.14063 5.6875,-3.09766 7.11523,6.46875 7.39063,3.6211 -1.69531,6.86718 6.83789,7.22852 -1.00977,13.29297 0.4336,3.12304 -7.14258,4.28907 -7.15039,8.20117 -3.24414,1.5625 -8.17383,2.69726 -5.55274,1.29297 -17.15429,-4.58008 -19.32031,-6.15625 -9.5293,0.21289 c 0,0 -8.69428,-18.61248 -6.82422,-22.68554 1.86979,-4.07299 -13.07422,-21.38672 -13.07422,-21.38672 l 6.79688,-9.87109 8.27148,-7.91602 z"
     id="path97" /><path
     style="color:#000000;font-style:normal;font-variant:normal;font-weight:normal;font-stretch:normal;font-size:medium;line-height:normal;font-family:sans-serif;text-indent:0;text-align:start;text-decoration:none;text-decoration-line:none;text-decoration-style:solid;text-decoration-color:#000000;letter-spacing:normal;word-spacing:normal;text-transform:none;direction:ltr;block-progression:tb;writing-mode:lr-tb;baseline-shift:baseline;text-anchor:start;white-space:normal;clip-rule:nonzero;display:inline;overflow:visible;visibility:visible;opacity:1;isolation:auto;mix-blend-mode:normal;color-interpolation:sRGB;color-interpolation-filters:linearRGB;solid-color:#000000;solid-opacity:1;fill:#ffffff;fill-opacity:1;fill-rule:nonzero;stroke:none;stroke-width:1px;stroke-linecap:butt;stroke-linejoin:miter;stroke-miterlimit:4;stroke-dasharray:none;stroke-dashoffset:0;stroke-opacity:1;color-rendering:auto;image-rendering:auto;shape-rendering:auto;text-rendering:auto;enable-background:accumulate"
     d="M 50.271484 45.417969 C 42.312569 45.417968 34.3539 48.118095 27.916016 53.517578 L 27.914062 53.517578 C 15.039439 64.322611 11.752153 82.991995 20.154297 97.548828 A 0.750075 0.750075 0 1 0 21.453125 96.798828 C 13.413268 82.869662 16.559575 65.004983 28.878906 54.666016 C 41.199137 44.332982 59.342895 44.333014 71.662109 54.666016 C 83.982431 65.004993 87.1297 82.869662 79.089844 96.798828 A 0.750075 0.750075 0 1 0 80.388672 97.548828 C 88.790815 82.991995 85.502631 64.3226 72.626953 53.517578 C 66.18956 48.118079 58.230399 45.417969 50.271484 45.417969 z M 113.05469 57.183594 A 0.50005 0.50005 0 0 0 112.5625 57.691406 L 112.56445 59.197266 C 110.03358 59.308304 107.53071 60.213991 105.48242 61.933594 C 101.10045 65.610821 99.980086 71.960798 102.83789 76.912109 L 103.08789 77.345703 L 113.08789 71.574219 L 123.08789 77.345703 L 123.33789 76.912109 C 126.1957 71.960798 125.0744 65.610799 120.69141 61.933594 C 119.59684 61.014453 118.37278 60.324902 117.08398 59.865234 C 115.94666 59.45959 114.75831 59.242998 113.56445 59.195312 L 113.5625 57.689453 A 0.50005 0.50005 0 0 0 113.05469 57.183594 z M 113.56641 60.195312 C 115.88341 60.296731 118.17415 61.124986 120.04883 62.699219 C 123.92784 65.953597 124.93705 71.47359 122.64258 75.933594 L 113.58789 70.707031 L 113.58008 66.607422 L 113.56641 60.195312 z M 112.56641 60.197266 L 112.58789 70.707031 L 103.53125 75.933594 C 101.23678 71.473586 102.24694 65.953576 106.125 62.699219 C 107.98856 61.134699 110.26392 60.307107 112.56641 60.197266 z M 122.52148 77.351562 A 0.50005 0.50005 0 0 0 122.03125 77.861328 L 122.04102 79.544922 L 120.33594 79.552734 A 0.50005 0.50005 0 1 0 120.33984 80.552734 L 122.04492 80.544922 L 122.05469 82.271484 A 0.50005 0.50005 0 1 0 123.05469 82.265625 L 123.04492 80.539062 L 124.75 80.53125 A 0.50005 0.50005 0 1 0 124.74609 79.53125 L 123.04102 79.539062 L 123.03125 77.855469 A 0.50005 0.50005 0 0 0 122.52148 77.351562 z M 106.42578 79.408203 L 102.01367 79.427734 A 0.50005 0.50005 0 1 0 102.01758 80.427734 L 106.43164 80.408203 A 0.50005 0.50005 0 1 0 106.42578 79.408203 z M 79.951172 101.72266 C 77.634184 101.72266 75.746094 103.61075 75.746094 105.92773 C 75.746094 108.24472 77.634184 110.13477 79.951172 110.13477 C 82.268159 110.13477 84.158203 108.24472 84.158203 105.92773 C 84.158203 103.61075 82.268159 101.72266 79.951172 101.72266 z M 21.173828 102.23438 C 18.856841 102.23438 16.966797 104.12247 16.966797 106.43945 C 16.966797 108.75644 18.856841 110.64648 21.173828 110.64648 C 23.490816 110.64648 25.378906 108.75644 25.378906 106.43945 C 25.378906 104.12247 23.490816 102.23437 21.173828 102.23438 z M 21.173828 103.23438 C 22.950375 103.23438 24.378906 104.66291 24.378906 106.43945 C 24.378906 108.216 22.950375 109.64648 21.173828 109.64648 C 19.397281 109.64648 17.966797 108.216 17.966797 106.43945 C 17.966797 104.66291 19.397281 103.23437 21.173828 103.23438 z M 40.337891 114.14648 L 40.337891 120.18164 L 41.90625 120.18164 L 41.90625 117.8125 L 43.626953 117.8125 L 43.626953 116.48242 L 41.90625 116.48242 L 41.90625 115.47461 L 43.794922 115.47461 L 43.794922 114.14648 L 40.337891 114.14648 z M 44.730469 114.14648 L 44.730469 117.64453 C 44.730469 118.58453 44.946906 119.26817 45.378906 119.70117 C 45.810906 120.13317 46.471281 120.34961 47.363281 120.34961 C 48.255281 120.34961 48.917703 120.13317 49.345703 119.70117 C 49.773703 119.26817 49.988281 118.58453 49.988281 117.64453 L 49.988281 114.14648 L 48.427734 114.14648 L 48.427734 117.42773 C 48.427734 117.60373 48.420203 117.78475 48.408203 117.96875 C 48.396203 118.15275 48.351203 118.32075 48.283203 118.46875 C 48.215203 118.61675 48.10875 118.74003 47.96875 118.83203 C 47.82875 118.92403 47.623281 118.97266 47.363281 118.97266 C 47.103281 118.97266 46.899859 118.92403 46.755859 118.83203 C 46.611859 118.74003 46.507453 118.61675 46.439453 118.46875 C 46.371453 118.32075 46.332313 118.15275 46.320312 117.96875 C 46.308312 117.78475 46.300781 117.60373 46.300781 117.42773 L 46.300781 114.14648 L 44.730469 114.14648 z M 51.253906 114.14648 L 51.253906 120.18164 L 54.6875 120.18164 L 54.6875 118.85156 L 52.822266 118.85156 L 52.822266 117.8125 L 54.582031 117.8125 L 54.582031 116.48242 L 52.822266 116.48242 L 52.822266 115.47461 L 54.6875 115.47461 L 54.6875 114.14648 L 51.253906 114.14648 z M 55.814453 114.14648 L 55.814453 120.18164 L 59.265625 120.18164 L 59.265625 118.85156 L 57.384766 118.85156 L 57.384766 114.14648 L 55.814453 114.14648 z M 50.3125 126.6875 C 44.572567 126.6875 38.832341 128.6348 34.189453 132.5293 C 24.904766 140.32134 22.532652 153.78341 28.591797 164.28125 A 0.750075 0.750075 0 1 0 29.890625 163.53125 C 24.19377 153.66109 26.423031 141.00369 35.152344 133.67773 C 43.882569 126.35473 56.741501 126.35478 65.470703 133.67773 C 74.201003 141.0037 76.43123 153.66109 70.734375 163.53125 A 0.750075 0.750075 0 1 0 72.033203 164.28125 C 78.092348 153.78341 75.719294 140.32133 66.433594 132.5293 C 61.791195 128.63477 56.052433 126.6875 50.3125 126.6875 z M 113.05469 126.84961 A 0.50005 0.50005 0 0 0 112.5625 127.35742 L 112.56445 128.86328 C 110.03358 128.97432 107.53071 129.88001 105.48242 131.59961 C 101.10045 135.27684 99.980083 141.62683 102.83789 146.57812 L 103.08789 147.01172 L 113.08789 141.24023 L 123.08789 147.01172 L 123.33789 146.57812 C 126.1957 141.62681 125.0744 135.27681 120.69141 131.59961 C 118.63092 129.86935 116.11115 128.96304 113.56445 128.86133 L 113.5625 127.35547 A 0.50005 0.50005 0 0 0 113.05469 126.84961 z M 113.56641 129.86133 C 115.88341 129.96275 118.17415 130.79101 120.04883 132.36523 C 123.92826 135.61997 124.93803 141.14131 122.64258 145.60156 L 113.58789 140.375 L 113.56641 129.86133 z M 112.56641 129.86328 L 112.58789 140.375 L 103.53125 145.60156 C 101.2358 141.14131 102.24652 135.61994 106.125 132.36523 C 107.98856 130.80072 110.26392 129.97312 112.56641 129.86328 z M 122.52148 147.01953 A 0.50005 0.50005 0 0 0 122.03125 147.5293 L 122.04102 149.21094 L 120.33594 149.21875 A 0.50005 0.50005 0 1 0 120.33984 150.21875 L 122.04492 150.21094 L 122.05469 151.9375 A 0.50005 0.50005 0 1 0 123.05469 151.93164 L 123.04492 150.20703 L 124.75 150.19922 A 0.50005 0.50005 0 1 0 124.74609 149.19922 L 123.04102 149.20703 L 123.03125 147.52344 A 0.50005 0.50005 0 0 0 122.52148 147.01953 z M 106.42578 149.07422 L 102.01367 149.0957 A 0.50005 0.50005 0 1 0 102.01758 150.0957 L 106.43164 150.07422 A 0.50005 0.50005 0 1 0 106.42578 149.07422 z M 69.951172 168.45703 C 67.634184 168.45703 65.746094 170.34512 65.746094 172.66211 C 65.746094 174.9791 67.634184 176.86914 69.951172 176.86914 C 72.268159 176.86914 74.158203 174.9791 74.158203 172.66211 C 74.158203 170.34512 72.268159 168.45703 69.951172 168.45703 z M 32.173828 168.96875 C 29.856841 168.96875 27.966797 170.85879 27.966797 173.17578 C 27.966797 175.49277 29.856841 177.38086 32.173828 177.38086 C 34.490816 177.38086 36.378906 175.49277 36.378906 173.17578 C 36.378906 170.85879 34.490816 168.96875 32.173828 168.96875 z M 32.173828 169.96875 C 33.950375 169.96875 35.378906 171.39923 35.378906 173.17578 C 35.378906 174.95233 33.950375 176.38086 32.173828 176.38086 C 30.397281 176.38086 28.966797 174.95233 28.966797 173.17578 C 28.966797 171.39923 30.397281 169.96875 32.173828 169.96875 z M 50.3125 190.35352 C 44.572567 190.35351 38.832341 192.30081 34.189453 196.19531 C 24.904766 203.98736 22.532652 217.45137 28.591797 227.94922 A 0.750075 0.750075 0 1 0 29.890625 227.19922 C 24.19377 217.32906 26.423031 204.6697 35.152344 197.34375 C 43.882569 190.02075 56.741501 190.0208 65.470703 197.34375 C 74.201003 204.66972 76.43123 217.32906 70.734375 227.19922 A 0.750075 0.750075 0 1 0 72.033203 227.94922 C 78.092348 217.45137 75.719294 203.98734 66.433594 196.19531 C 61.791195 192.30079 56.052433 190.35352 50.3125 190.35352 z M 113.05469 190.51562 A 0.50005 0.50005 0 0 0 112.5625 191.02344 L 112.56445 192.5293 C 110.03358 192.64034 107.53071 193.54603 105.48242 195.26562 C 101.10045 198.94286 99.980081 205.29283 102.83789 210.24414 L 103.08789 210.67773 L 113.08789 204.90625 L 123.08789 210.67773 L 123.33789 210.24414 C 126.1957 205.29283 125.0744 198.94284 120.69141 195.26562 C 119.59684 194.34649 118.37278 193.65693 117.08398 193.19727 C 115.94666 192.79162 114.75831 192.57503 113.56445 192.52734 L 113.5625 191.02148 A 0.50005 0.50005 0 0 0 113.05469 190.51562 z M 113.56641 193.52734 C 115.88341 193.62876 118.17415 194.45702 120.04883 196.03125 C 123.92826 199.28598 124.93803 204.80733 122.64258 209.26758 L 113.58789 204.04102 L 113.58008 199.95703 L 113.56641 193.52734 z M 112.56641 193.5293 L 112.58789 204.04102 L 103.53125 209.26758 C 101.2358 204.80732 102.24652 199.28596 106.125 196.03125 C 107.98856 194.46673 110.26392 193.63914 112.56641 193.5293 z M 122.52148 210.68555 A 0.50005 0.50005 0 0 0 122.03125 211.19531 L 122.04102 212.87695 L 120.33594 212.88477 A 0.50005 0.50005 0 1 0 120.33984 213.88477 L 122.04492 213.87695 L 122.05469 215.60352 A 0.50005 0.50005 0 1 0 123.05469 215.59766 L 123.04492 213.87305 L 124.75 213.86523 A 0.50005 0.50005 0 1 0 124.74609 212.86523 L 123.04102 212.87305 L 123.03125 211.18945 A 0.50005 0.50005 0 0 0 122.52148 210.68555 z M 106.42578 212.74023 L 102.01367 212.76172 A 0.50005 0.50005 0 1 0 102.01758 213.76172 L 106.43164 213.74023 A 0.50005 0.50005 0 1 0 106.42578 212.74023 z M 69.951172 232.12305 C 67.634184 232.12305 65.746094 234.01309 65.746094 236.33008 C 65.746094 238.64707 67.634184 240.53516 69.951172 240.53516 C 72.268159 240.53516 74.158203 238.64707 74.158203 236.33008 C 74.158203 234.01309 72.268159 232.12305 69.951172 232.12305 z M 32.173828 232.63672 C 29.856841 232.63672 27.966797 234.52481 27.966797 236.8418 C 27.966797 239.15878 29.856841 241.04883 32.173828 241.04883 C 34.490816 241.04883 36.378906 239.15878 36.378906 236.8418 C 36.378906 234.52481 34.490816 232.63672 32.173828 232.63672 z M 32.173828 233.63672 C 33.950375 233.63672 35.378906 235.06525 35.378906 236.8418 C 35.378906 238.61834 33.950375 240.04883 32.173828 240.04883 C 30.397281 240.04883 28.966797 238.61834 28.966797 236.8418 C 28.966797 235.06525 30.397281 233.63672 32.173828 233.63672 z M 36.091797 243.375 L 36.091797 249.41016 L 38.611328 249.41016 C 38.931328 249.41016 39.219563 249.37483 39.476562 249.29883 C 39.732563 249.22283 39.948906 249.11089 40.128906 248.96289 C 40.308906 248.81489 40.444922 248.6282 40.544922 248.4082 C 40.644922 248.1882 40.693359 247.94025 40.693359 247.65625 C 40.693359 247.47625 40.672906 247.30453 40.628906 247.14453 C 40.584906 246.98453 40.517969 246.84089 40.417969 246.71289 C 40.317969 246.58489 40.189203 246.47667 40.033203 246.38867 C 39.877203 246.30067 39.684936 246.23541 39.460938 246.19141 C 39.684938 246.05141 39.852938 245.88359 39.960938 245.68359 C 40.068938 245.48359 40.125 245.23173 40.125 244.92773 C 40.125 244.42773 39.981359 244.04439 39.693359 243.77539 C 39.405359 243.50739 38.983734 243.375 38.427734 243.375 L 36.091797 243.375 z M 41.628906 243.375 L 41.628906 249.41016 L 45.078125 249.41016 L 45.078125 248.08008 L 43.197266 248.08008 L 43.197266 243.375 L 41.628906 243.375 z M 45.886719 243.375 L 45.886719 249.41016 L 49.320312 249.41016 L 49.320312 248.08008 L 47.455078 248.08008 L 47.455078 247.04102 L 49.216797 247.04102 L 49.216797 245.71289 L 47.455078 245.71289 L 47.455078 244.70312 L 49.320312 244.70312 L 49.320312 243.375 L 45.886719 243.375 z M 50.449219 243.375 L 50.449219 249.41016 L 52.017578 249.41016 L 52.017578 245.7207 L 54.914062 249.41016 L 56.476562 249.41016 L 56.476562 243.375 L 54.914062 243.375 L 54.914062 247.06445 L 52.017578 243.375 L 50.449219 243.375 z M 57.740234 243.375 L 57.740234 249.41016 L 60.060547 249.41016 C 60.476547 249.41016 60.865565 249.32611 61.226562 249.16211 C 61.586562 248.99811 61.901922 248.77309 62.169922 248.49609 C 62.437922 248.22009 62.650734 247.8972 62.802734 247.5332 C 62.954734 247.1692 63.029297 246.78858 63.029297 246.39258 C 63.029297 245.99158 62.954828 245.60814 62.798828 245.24414 C 62.642828 244.88014 62.430109 244.5592 62.162109 244.2832 C 61.894109 244.0072 61.57875 243.78705 61.21875 243.62305 C 60.85775 243.45905 60.472547 243.375 60.060547 243.375 L 57.740234 243.375 z M 37.660156 244.57617 L 37.947266 244.57617 C 38.439266 244.57617 38.683594 244.77216 38.683594 245.16016 C 38.683594 245.54816 38.439266 245.74414 37.947266 245.74414 L 37.660156 245.74414 L 37.660156 244.57617 z M 59.308594 244.70312 L 59.669922 244.70312 C 59.937922 244.70312 60.176672 244.74803 60.388672 244.83203 C 60.600672 244.91603 60.781687 245.03559 60.929688 245.18359 C 61.078687 245.33159 61.189531 245.5127 61.269531 245.7207 C 61.349531 245.9287 61.390625 246.15158 61.390625 246.39258 C 61.390625 246.63658 61.349438 246.86436 61.273438 247.06836 C 61.197437 247.27236 61.0865 247.45356 60.9375 247.60156 C 60.7895 247.74956 60.608484 247.86912 60.396484 247.95312 C 60.184484 248.03712 59.941922 248.08008 59.669922 248.08008 L 59.308594 248.08008 L 59.308594 244.70312 z M 37.660156 246.91211 L 38.003906 246.91211 C 38.399906 246.91211 38.679564 246.96445 38.851562 247.06445 C 39.023562 247.16445 39.107422 247.32873 39.107422 247.55273 C 39.107422 247.77673 39.023562 247.94102 38.851562 248.04102 C 38.679564 248.14102 38.399906 248.19336 38.003906 248.19336 L 37.660156 248.19336 L 37.660156 246.91211 z "
     id="path2075" /><path
     inkscape:connector-curvature="0"
     style="fill:#ffffff;fill-rule:nonzero"
     d="m 40.38,181.038 0,4.706 -1.569,0 0,-4.706 -1.288,0 0,-1.329 4.146,0 0,1.329 -1.289,0 z"
     id="path2120" /><path
     inkscape:connector-curvature="0"
     style="fill:#ffffff;fill-rule:nonzero"
     d="m 43.677,182.727 c 0,0.24 0.044,0.46 0.137,0.664 0.092,0.204 0.212,0.38 0.368,0.528 0.156,0.148 0.336,0.264 0.54,0.348 0.204,0.084 0.424,0.124 0.652,0.124 0.228,0 0.448,-0.04 0.652,-0.124 0.205,-0.084 0.389,-0.2 0.545,-0.348 0.156,-0.148 0.28,-0.324 0.372,-0.528 0.092,-0.204 0.136,-0.424 0.136,-0.664 0,-0.241 -0.044,-0.461 -0.136,-0.665 -0.092,-0.204 -0.216,-0.38 -0.372,-0.528 -0.156,-0.148 -0.34,-0.264 -0.545,-0.348 -0.204,-0.084 -0.424,-0.124 -0.652,-0.124 -0.228,0 -0.448,0.04 -0.652,0.124 -0.204,0.084 -0.384,0.2 -0.54,0.348 -0.156,0.148 -0.276,0.324 -0.368,0.528 -0.093,0.204 -0.137,0.424 -0.137,0.665 z m -1.64,0 c 0,-0.449 0.084,-0.865 0.248,-1.253 0.164,-0.388 0.396,-0.724 0.688,-1.012 0.292,-0.289 0.644,-0.513 1.053,-0.677 0.408,-0.164 0.856,-0.244 1.348,-0.244 0.484,0 0.933,0.08 1.345,0.244 0.412,0.164 0.764,0.388 1.06,0.677 0.296,0.288 0.528,0.624 0.692,1.012 0.165,0.388 0.249,0.804 0.249,1.253 0,0.448 -0.084,0.864 -0.249,1.252 -0.164,0.388 -0.396,0.724 -0.692,1.012 -0.296,0.289 -0.648,0.513 -1.06,0.677 -0.412,0.164 -0.861,0.244 -1.345,0.244 -0.492,0 -0.94,-0.08 -1.348,-0.244 -0.409,-0.164 -0.761,-0.388 -1.053,-0.677 -0.292,-0.288 -0.524,-0.624 -0.688,-1.012 -0.164,-0.388 -0.248,-0.804 -0.248,-1.252 z"
     id="path2122" /><path
     inkscape:connector-curvature="0"
     style="fill:#ffffff;fill-rule:nonzero"
     d="m 49.712,185.744 0,-6.035 1.569,0 2.897,3.69 0,-3.69 1.56,0 0,6.035 -1.56,0 -2.897,-3.69 0,3.69 -1.569,0 z"
     id="path2124" /><path
     inkscape:connector-curvature="0"
     style="fill:#ffffff;fill-rule:nonzero"
     d="m 60.436,181.038 -1.864,0 0,1.008 1.76,0 0,1.329 -1.76,0 0,1.04 1.864,0 0,1.329 -3.433,0 0,-6.035 3.433,0 0,1.329 z"
     id="path2126" /><rect
     style="fill:#ffffff"
     height="6.0349998"
     width="1.569"
     y="349.57501"
     x="25.395"
     id="rect2235" /><path
     inkscape:connector-curvature="0"
     style="fill:#ffffff;fill-rule:nonzero"
     d="m 28.228,355.61 0,-6.035 1.568,0 2.898,3.69 0,-3.69 1.56,0 0,6.035 -1.56,0 -2.898,-3.69 0,3.69 -1.568,0 z"
     id="path2237" /><path
     inkscape:connector-curvature="0"
     style="fill:#ffffff;fill-rule:nonzero"
     d="m 37.087,352.344 0.521,0 c 0.576,0 0.864,-0.252 0.864,-0.752 0,-0.5 -0.288,-0.752 -0.864,-0.752 l -0.521,0 0,1.504 z m 0,3.266 -1.568,0 0,-6.035 2.497,0 c 0.676,0 1.196,0.176 1.556,0.529 0.361,0.352 0.541,0.848 0.541,1.488 0,0.64 -0.18,1.137 -0.541,1.489 -0.36,0.352 -0.88,0.528 -1.556,0.528 l -0.929,0 0,2.001 z"
     id="path2239" /><path
     inkscape:connector-curvature="0"
     style="fill:#ffffff;fill-rule:nonzero"
     d="m 42.514,349.575 0,3.282 c 0,0.176 0.008,0.356 0.02,0.54 0.012,0.184 0.052,0.352 0.12,0.5 0.068,0.148 0.172,0.272 0.316,0.364 0.144,0.092 0.348,0.14 0.608,0.14 0.26,0 0.464,-0.048 0.604,-0.14 0.14,-0.092 0.248,-0.216 0.316,-0.364 0.069,-0.148 0.113,-0.316 0.125,-0.5 0.012,-0.184 0.02,-0.364 0.02,-0.54 l 0,-3.282 1.56,0 0,3.498 c 0,0.94 -0.216,1.624 -0.644,2.057 -0.428,0.432 -1.089,0.648 -1.981,0.648 -0.892,0 -1.553,-0.216 -1.985,-0.648 -0.432,-0.433 -0.648,-1.117 -0.648,-2.057 l 0,-3.498 1.569,0 z"
     id="path2241" /><path
     inkscape:connector-curvature="0"
     style="fill:#ffffff;fill-rule:nonzero"
     d="m 49.757,350.904 0,4.706 -1.569,0 0,-4.706 -1.289,0 0,-1.329 4.146,0 0,1.329 -1.288,0 z"
     id="path2243" /><path
     inkscape:connector-curvature="0"
     style="fill:#ffffff;fill-rule:nonzero"
     d="m 105.834,349.579 0,3.278 c 0,0.176 0.008,0.356 0.02,0.54 0.012,0.184 0.052,0.352 0.12,0.5 0.068,0.148 0.172,0.272 0.316,0.364 0.144,0.092 0.348,0.14 0.608,0.14 0.261,0 0.465,-0.048 0.605,-0.14 0.14,-0.092 0.244,-0.216 0.316,-0.364 0.068,-0.148 0.108,-0.316 0.124,-0.5 0.012,-0.184 0.02,-0.364 0.02,-0.54 l 0,-3.278 1.561,0 0,3.494 c 0,0.94 -0.217,1.624 -0.645,2.057 -0.432,0.432 -1.092,0.648 -1.981,0.648 -0.892,0 -1.552,-0.216 -1.984,-0.648 -0.433,-0.433 -0.649,-1.117 -0.649,-2.057 l 0,-3.494 1.569,0 z"
     id="path2250" /><path
     inkscape:connector-curvature="0"
     style="fill:#ffffff;fill-rule:nonzero"
     d="m 113.073,350.904 0,4.706 -1.569,0 0,-4.706 -1.284,0 0,-1.325 4.142,0 0,1.325 -1.289,0 z"
     id="path2252" /><path
     inkscape:connector-curvature="0"
     style="fill:#ffffff;fill-rule:nonzero"
     d="m 116.626,352.344 0.521,0 c 0.576,0 0.864,-0.248 0.864,-0.752 0,-0.5 -0.288,-0.752 -0.864,-0.752 l -0.521,0 0,1.504 z m 0,3.266 -1.568,0 0,-6.031 2.497,0 c 0.676,0 1.196,0.176 1.556,0.529 0.361,0.352 0.541,0.844 0.541,1.484 0,0.64 -0.18,1.137 -0.541,1.489 -0.36,0.352 -0.88,0.528 -1.556,0.528 l -0.929,0 0,2.001 z"
     id="path2254" /><path
     inkscape:connector-curvature="0"
     style="fill:#ffffff;fill-rule:nonzero"
     d="m 122.049,349.579 0,3.278 c 0,0.176 0.008,0.356 0.02,0.54 0.016,0.184 0.056,0.352 0.12,0.5 0.068,0.148 0.172,0.272 0.316,0.364 0.144,0.092 0.348,0.14 0.608,0.14 0.264,0 0.464,-0.048 0.604,-0.14 0.14,-0.092 0.249,-0.216 0.317,-0.364 0.068,-0.148 0.112,-0.316 0.124,-0.5 0.012,-0.184 0.02,-0.364 0.02,-0.54 l 0,-3.278 1.56,0 0,3.494 c 0,0.94 -0.216,1.624 -0.644,2.057 -0.428,0.432 -1.088,0.648 -1.981,0.648 -0.888,0 -1.552,-0.216 -1.985,-0.648 -0.432,-0.433 -0.648,-1.117 -0.648,-2.057 l 0,-3.494 1.569,0 z"
     id="path2256" /><path
     inkscape:connector-curvature="0"
     style="fill:#ffffff;fill-rule:nonzero"
     d="m 129.292,350.904 0,4.706 -1.569,0 0,-4.706 -1.288,0 0,-1.325 4.141,0 0,1.325 -1.284,0 z"
     id="path2258" /><path
     inkscape:connector-curvature="0"
     style="fill:#ffffff;fill-rule:nonzero"
     d="m 22.714,315.474 0,3.529 1.412,0 0,0.997 -2.589,0 0,-4.526 1.177,0 z"
     id="path2315" /><path
     inkscape:connector-curvature="0"
     style="fill:#ffffff;fill-rule:nonzero"
     d="m 51.714,317.499 0.224,0 c 0.232,0 0.408,-0.048 0.532,-0.144 0.124,-0.096 0.188,-0.236 0.188,-0.416 0,-0.181 -0.064,-0.317 -0.188,-0.413 -0.124,-0.096 -0.3,-0.144 -0.532,-0.144 l -0.224,0 0,1.117 z m 2.589,2.501 -1.465,0 -1.124,-1.741 0,1.741 -1.177,0 0,-4.526 1.833,0 c 0.252,0 0.472,0.04 0.66,0.112 0.188,0.076 0.34,0.176 0.464,0.304 0.12,0.128 0.213,0.276 0.277,0.444 0.06,0.168 0.092,0.348 0.092,0.541 0,0.344 -0.084,0.624 -0.249,0.836 -0.168,0.212 -0.412,0.36 -0.736,0.436 L 54.303,320 Z"
     id="path2319" /><path
     inkscape:connector-curvature="0"
     style="fill:#ffffff;fill-rule:nonzero"
     d="m 125.714,317.499 0.224,0 c 0.232,0 0.408,-0.048 0.532,-0.144 0.124,-0.096 0.188,-0.236 0.188,-0.416 0,-0.181 -0.064,-0.317 -0.188,-0.413 -0.124,-0.096 -0.3,-0.144 -0.532,-0.144 l -0.224,0 0,1.117 z m 2.589,2.501 -1.465,0 -1.124,-1.741 0,1.741 -1.177,0 0,-4.526 1.833,0 c 0.252,0 0.472,0.04 0.66,0.112 0.188,0.076 0.34,0.176 0.464,0.304 0.12,0.128 0.213,0.276 0.277,0.444 0.06,0.168 0.092,0.348 0.092,0.541 0,0.344 -0.084,0.624 -0.249,0.836 -0.168,0.212 -0.412,0.36 -0.736,0.436 l 1.425,1.853 z"
     id="path2327" /><path
     inkscape:connector-curvature="0"
     id="path123"
     style="fill:#ffffff;fill-rule:nonzero"
     d="m 22.765,305.944 0.768,-4.524 1.164,0 0.906,2.412 0.9,-2.412 1.164,0 0.768,4.524 -1.17,0 -0.39,-2.604 -1.068,2.604 -0.468,0 -1.014,-2.604 -0.39,2.604 -1.17,0 z" /><path
     inkscape:connector-curvature="0"
     id="path125"
     style="fill:#ffffff;fill-rule:nonzero"
     d="m 30.205,303.682 c 0,0.18 0.034,0.346 0.102,0.498 0.068,0.152 0.16,0.284 0.276,0.396 0.116,0.112 0.251,0.199 0.405,0.261 0.154,0.062 0.317,0.093 0.489,0.093 0.172,0 0.335,-0.031 0.489,-0.093 0.154,-0.062 0.29,-0.149 0.408,-0.261 0.118,-0.112 0.211,-0.244 0.279,-0.396 0.068,-0.152 0.102,-0.318 0.102,-0.498 0,-0.18 -0.034,-0.346 -0.102,-0.498 -0.068,-0.152 -0.161,-0.284 -0.279,-0.396 -0.118,-0.112 -0.254,-0.199 -0.408,-0.261 -0.154,-0.062 -0.317,-0.093 -0.489,-0.093 -0.172,0 -0.335,0.031 -0.489,0.093 -0.154,0.062 -0.289,0.149 -0.405,0.261 -0.116,0.112 -0.208,0.244 -0.276,0.396 -0.068,0.152 -0.102,0.318 -0.102,0.498 z m -1.23,0 c 0,-0.336 0.062,-0.649 0.186,-0.939 0.124,-0.29 0.296,-0.543 0.516,-0.759 0.22,-0.216 0.483,-0.385 0.789,-0.507 0.306,-0.122 0.643,-0.183 1.011,-0.183 0.364,0 0.7,0.061 1.008,0.183 0.308,0.122 0.573,0.291 0.795,0.507 0.222,0.216 0.395,0.469 0.519,0.759 0.124,0.29 0.186,0.603 0.186,0.939 0,0.336 -0.062,0.649 -0.186,0.939 -0.124,0.29 -0.297,0.543 -0.519,0.759 -0.222,0.216 -0.487,0.385 -0.795,0.507 -0.308,0.122 -0.644,0.183 -1.008,0.183 -0.368,0 -0.705,-0.061 -1.011,-0.183 -0.306,-0.122 -0.569,-0.291 -0.789,-0.507 -0.22,-0.216 -0.392,-0.469 -0.516,-0.759 -0.124,-0.29 -0.186,-0.603 -0.186,-0.939 z" /><path
     inkscape:connector-curvature="0"
     id="path127"
     style="fill:#ffffff;fill-rule:nonzero"
     d="m 35.905,304.948 0.27,0 c 0.204,0 0.386,-0.032 0.546,-0.096 0.16,-0.064 0.295,-0.152 0.405,-0.264 0.11,-0.112 0.194,-0.245 0.252,-0.399 0.058,-0.154 0.087,-0.323 0.087,-0.507 0,-0.18 -0.03,-0.348 -0.09,-0.504 -0.06,-0.156 -0.145,-0.29 -0.255,-0.402 -0.11,-0.112 -0.245,-0.2 -0.405,-0.264 -0.16,-0.064 -0.34,-0.096 -0.54,-0.096 l -0.27,0 0,2.532 z m -1.176,-3.528 1.74,0 c 0.308,0 0.597,0.062 0.867,0.186 0.27,0.124 0.506,0.289 0.708,0.495 0.202,0.206 0.361,0.446 0.477,0.72 0.116,0.274 0.174,0.561 0.174,0.861 0,0.296 -0.057,0.581 -0.171,0.855 -0.114,0.274 -0.272,0.515 -0.474,0.723 -0.202,0.208 -0.438,0.374 -0.708,0.498 -0.27,0.124 -0.561,0.186 -0.873,0.186 l -1.74,0 0,-4.524 z" /><path
     inkscape:connector-curvature="0"
     id="path129"
     style="fill:#ffffff;fill-rule:nonzero"
     d="m 42.019,302.416 -1.398,0 0,0.756 1.32,0 0,0.996 -1.32,0 0,0.78 1.398,0 0,0.996 -2.574,0 0,-4.524 2.574,0 0,0.996 z" /><path
     inkscape:connector-curvature="0"
     id="path131"
     style="fill:#ffffff;fill-rule:nonzero"
     d="m 44.041,301.42 0,3.528 1.41,0 0,0.996 -2.586,0 0,-4.524 1.176,0 z" /><path
     inkscape:connector-curvature="0"
     id="path133"
     style="fill:#ffffff;fill-rule:nonzero"
     d="m 68.597,302.416 0,3.528 -1.176,0 0,-3.528 -0.966,0 0,-0.996 3.108,0 0,0.996 -0.966,0 z" /><path
     inkscape:connector-curvature="0"
     id="path135"
     style="fill:#ffffff;fill-rule:nonzero"
     d="m 71.069,303.682 c 0,0.18 0.034,0.346 0.102,0.498 0.068,0.152 0.16,0.284 0.276,0.396 0.116,0.112 0.251,0.199 0.405,0.261 0.154,0.062 0.317,0.093 0.489,0.093 0.172,0 0.335,-0.031 0.489,-0.093 0.154,-0.062 0.29,-0.149 0.408,-0.261 0.118,-0.112 0.211,-0.244 0.279,-0.396 0.068,-0.152 0.102,-0.318 0.102,-0.498 0,-0.18 -0.034,-0.346 -0.102,-0.498 -0.068,-0.152 -0.161,-0.284 -0.279,-0.396 -0.118,-0.112 -0.254,-0.199 -0.408,-0.261 -0.154,-0.062 -0.317,-0.093 -0.489,-0.093 -0.172,0 -0.335,0.031 -0.489,0.093 -0.154,0.062 -0.289,0.149 -0.405,0.261 -0.116,0.112 -0.208,0.244 -0.276,0.396 -0.068,0.152 -0.102,0.318 -0.102,0.498 z m -1.23,0 c 0,-0.336 0.062,-0.649 0.186,-0.939 0.124,-0.29 0.296,-0.543 0.516,-0.759 0.22,-0.216 0.483,-0.385 0.789,-0.507 0.306,-0.122 0.643,-0.183 1.011,-0.183 0.364,0 0.7,0.061 1.008,0.183 0.308,0.122 0.573,0.291 0.795,0.507 0.222,0.216 0.395,0.469 0.519,0.759 0.124,0.29 0.186,0.603 0.186,0.939 0,0.336 -0.062,0.649 -0.186,0.939 -0.124,0.29 -0.297,0.543 -0.519,0.759 -0.222,0.216 -0.487,0.385 -0.795,0.507 -0.308,0.122 -0.644,0.183 -1.008,0.183 -0.368,0 -0.705,-0.061 -1.011,-0.183 -0.306,-0.122 -0.569,-0.291 -0.789,-0.507 -0.22,-0.216 -0.392,-0.469 -0.516,-0.759 -0.124,-0.29 -0.186,-0.603 -0.186,-0.939 z" /><path
     inkscape:connector-curvature="0"
     id="path137"
     style="fill:#ffffff;fill-rule:nonzero"
     d="m 75.593,305.944 0,-4.524 1.176,0 2.172,2.766 0,-2.766 1.17,0 0,4.524 -1.17,0 -2.172,-2.766 0,2.766 -1.176,0 z" /><path
     inkscape:connector-curvature="0"
     id="path139"
     style="fill:#ffffff;fill-rule:nonzero"
     d="m 83.633,302.416 -1.398,0 0,0.756 1.32,0 0,0.996 -1.32,0 0,0.78 1.398,0 0,0.996 -2.574,0 0,-4.524 2.574,0 0,0.996 z" /><path
     inkscape:connector-curvature="0"
     id="path141"
     style="fill:#ffffff;fill-rule:nonzero"
     d="m 110.083,303.412 2.334,0 c 0,0.24 -0.01,0.458 -0.03,0.654 -0.02,0.196 -0.06,0.378 -0.12,0.546 -0.084,0.236 -0.198,0.445 -0.342,0.627 -0.144,0.182 -0.313,0.334 -0.507,0.456 -0.194,0.122 -0.407,0.215 -0.639,0.279 -0.232,0.064 -0.476,0.096 -0.732,0.096 -0.352,0 -0.673,-0.058 -0.963,-0.174 -0.29,-0.116 -0.539,-0.279 -0.747,-0.489 -0.208,-0.21 -0.37,-0.462 -0.486,-0.756 -0.116,-0.294 -0.174,-0.619 -0.174,-0.975 0,-0.352 0.057,-0.675 0.171,-0.969 0.114,-0.294 0.276,-0.545 0.486,-0.753 0.21,-0.208 0.463,-0.37 0.759,-0.486 0.296,-0.116 0.626,-0.174 0.99,-0.174 0.472,0 0.886,0.102 1.242,0.306 0.356,0.204 0.638,0.52 0.846,0.948 l -1.116,0.462 c -0.104,-0.248 -0.239,-0.426 -0.405,-0.534 -0.166,-0.108 -0.355,-0.162 -0.567,-0.162 -0.176,0 -0.336,0.033 -0.48,0.099 -0.144,0.066 -0.267,0.16 -0.369,0.282 -0.102,0.122 -0.182,0.269 -0.24,0.441 -0.058,0.172 -0.087,0.364 -0.087,0.576 0,0.192 0.025,0.37 0.075,0.534 0.05,0.164 0.125,0.306 0.225,0.426 0.1,0.12 0.224,0.213 0.372,0.279 0.148,0.066 0.32,0.099 0.516,0.099 0.116,0 0.228,-0.013 0.336,-0.039 0.108,-0.026 0.205,-0.068 0.291,-0.126 0.086,-0.058 0.157,-0.133 0.213,-0.225 0.056,-0.092 0.094,-0.204 0.114,-0.336 l -0.966,0 0,-0.912 z" /><path
     inkscape:connector-curvature="0"
     id="path143"
     style="fill:#ffffff;fill-rule:nonzero"
     d="m 115.453,304.264 -0.528,-1.506 -0.528,1.506 1.056,0 z m 0.312,0.894 -1.68,0 -0.27,0.786 -1.254,0 1.722,-4.524 1.284,0 1.722,4.524 -1.254,0 -0.27,-0.786 z" /><rect
     id="rect145"
     style="fill:#ffffff;fill-rule:nonzero"
     height="4.5240002"
     width="1.176"
     y="301.42001"
     x="117.805" /><path
     inkscape:connector-curvature="0"
     id="path147"
     style="fill:#ffffff;fill-rule:nonzero"
     d="m 119.929,305.944 0,-4.524 1.176,0 2.172,2.766 0,-2.766 1.17,0 0,4.524 -1.17,0 -2.172,-2.766 0,2.766 -1.176,0 z" /><path
     inkscape:connector-curvature="0"
     style="stroke:#0d0d0d;stroke-width:0.99000001px;stroke-linejoin:round;stroke-miterlimit:1.5"
     d="m 134.026,255.453 c 0,-1.354 -1.099,-2.452 -2.451,-2.452 l -113.098,0 c -1.353,0 -2.451,1.098 -2.451,2.452 l 0,25.095 c 0,1.354 1.098,2.452 2.451,2.452 l 113.098,0 c 1.352,0 2.451,-1.098 2.451,-2.452 l 0,-25.095 z"
     id="path7759" /><path
     style="color:#000000;font-style:normal;font-variant:normal;font-weight:normal;font-stretch:normal;font-size:medium;line-height:normal;font-family:sans-serif;text-indent:0;text-align:start;text-decoration:none;text-decoration-line:none;text-decoration-style:solid;text-decoration-color:#000000;letter-spacing:normal;word-spacing:normal;text-transform:none;direction:ltr;block-progression:tb;writing-mode:lr-tb;baseline-shift:baseline;text-anchor:start;white-space:normal;clip-rule:nonzero;display:inline;overflow:visible;visibility:visible;opacity:1;isolation:auto;mix-blend-mode:normal;color-interpolation:sRGB;color-interpolation-filters:linearRGB;solid-color:#000000;solid-opacity:1;fill:#48373e;fill-opacity:1;fill-rule:nonzero;stroke:none;stroke-width:1px;stroke-linecap:butt;stroke-linejoin:round;stroke-miterlimit:1.5;stroke-dasharray:none;stroke-dashoffset:0;stroke-opacity:1;color-rendering:auto;image-rendering:auto;shape-rendering:auto;text-rendering:auto;enable-background:accumulate"
     d="m 98.455078,257.53711 a 0.50005,0.50005 0 0 0 -0.492187,0.50781 l 0,21.38672 a 0.50005,0.50005 0 1 0 1,0 l 0,-21.38672 a 0.50005,0.50005 0 0 0 -0.507813,-0.50781 z"
     id="path7853"
     inkscape:connector-curvature="0" /><path
     style="stroke:none;stroke-width:0.99000001px;stroke-linejoin:round;stroke-miterlimit:1.5;fill:url(#linearGradient4653);fill-opacity:1"
     d="M 44.207031 265.6582 C 35.281182 265.6505 25.995967 266.47028 16.025391 268.68359 L 16.025391 280.54883 C 16.025391 281.90283 17.123562 283 18.476562 283 L 131.57422 283 C 132.92622 283 134.02539 281.90283 134.02539 280.54883 L 134.02539 270.3125 C 99.525693 274.56461 73.778837 265.68372 44.207031 265.6582 z "
     id="path4645" /><path
     inkscape:connector-curvature="0"
     style="fill:none;stroke:#404040;stroke-width:0.5px;stroke-linejoin:round;stroke-miterlimit:1.5;stroke-opacity:0.46666703"
     d="m 17.533,281.812 115.293,0"
     id="path7767" /><path
     style="color:#000000;font-style:normal;font-variant:normal;font-weight:normal;font-stretch:normal;font-size:medium;line-height:normal;font-family:sans-serif;text-indent:0;text-align:start;text-decoration:none;text-decoration-line:none;text-decoration-style:solid;text-decoration-color:#000000;letter-spacing:normal;word-spacing:normal;text-transform:none;direction:ltr;block-progression:tb;writing-mode:lr-tb;baseline-shift:baseline;text-anchor:start;white-space:normal;clip-rule:nonzero;display:inline;overflow:visible;visibility:visible;opacity:1;isolation:auto;mix-blend-mode:normal;color-interpolation:sRGB;color-interpolation-filters:linearRGB;solid-color:#000000;solid-opacity:1;fill:url(#linearGradient4186);fill-opacity:1;fill-rule:nonzero;stroke:none;stroke-width:0.99000001px;stroke-linecap:butt;stroke-linejoin:round;stroke-miterlimit:1.5;stroke-dasharray:none;stroke-dashoffset:0;stroke-opacity:1;color-rendering:auto;image-rendering:auto;shape-rendering:auto;text-rendering:auto;enable-background:accumulate"
     d="m 19.103516,253.3125 c -1.546819,0 -2.814454,1.26633 -2.814454,2.81445 l 0,23.72461 c 0,1.54813 1.267635,2.8125 2.814454,2.8125 l 111.878904,0 c 1.54682,0 2.81446,-1.26437 2.81446,-2.8125 l 0,-23.72461 c 0,-1.54812 -1.26764,-2.81445 -2.81446,-2.81445 l -111.878904,0 z m 0,0.99023 111.878904,0 c 1.01118,0 1.82422,0.81235 1.82422,1.82422 l 0,23.72461 c 0,1.01188 -0.81304,1.82422 -1.82422,1.82422 l -111.878904,0 c -1.011182,0 -1.824219,-0.81234 -1.824219,-1.82422 l 0,-23.72461 c 0,-1.01187 0.813037,-1.82422 1.824219,-1.82422 z"
     id="path7771"
     inkscape:connector-curvature="0" /><path
     style="clip-rule:evenodd;fill:#ffffff;fill-rule:nonzero"
     d="m 32.53906,17.927734 0,18.953125 4.92969,0 0,-7.443359 5.40625,0 0,-4.171875 -5.40625,0 0,-3.169922 5.93164,0 0,-4.167969 -10.86133,0 z m 13.80078,0 0,18.953125 4.36133,0 0,6.628907 1.37891,0 0,-6.628907 5.0957,0 0,-4.171875 -5.90625,0 0,-14.78125 -4.92969,0 z m 19.5625,0 -7.21679,18.953125 5.2539,0 1.13086,-3.294921 7.03711,0 0.88477,2.574218 -0.45313,0 0,2.75586 c -0.43727,-0.42245 -0.92341,-0.634766 -1.45703,-0.634766 -0.66703,0 -1.19777,0.254402 -1.59375,0.763672 -0.39598,0.50926 -0.59375,1.192288 -0.59375,2.048828 0,0.78773 0.17494,1.407442 0.52539,1.857422 0.35151,0.44997 0.83407,0.675781 1.44922,0.675781 0.7602,0 1.31629,-0.360118 1.66992,-1.080078 l 0,0.962891 1.38282,0 0,-6.628907 1.71875,0 0,0.65625 1.37695,0 0,-0.65625 1.47656,0 -7.21289,-18.953125 -5.37891,0 z m 17.11915,0 -3.2168,18.953125 4.89844,0 1.63476,-10.910156 4.24805,10.910156 1.96289,0 4.47266,-10.910156 1.63476,10.910156 3.62695,0 0,0.65625 1.37891,0 0,-1.15039 -0.1875,0 -3.13477,-18.458985 -4.875,0 -3.77148,10.09961 -3.79687,-10.09961 -4.875,0 z m 23.65234,0 0,18.953125 10.78711,0 0,-4.171875 -5.85742,0 0,-3.271484 5.52929,0 0,-4.171875 -5.52929,0 0,-3.169922 5.85742,0 0,-4.167969 -10.78711,0 z m -38.08203,5.603516 2.20898,6.308594 -4.42187,0 2.21289,-6.308594 z m 16.98242,13.847656 -1.37695,0.158203 0,0.861329 -0.57227,0 0,0.861328 0.57227,0 0,2.691406 c 0,1.117 0.59762,1.675781 1.79297,1.675781 0.18846,0 0.44806,-0.0492 0.77734,-0.144531 l 0,-0.837891 c -0.16517,0.0434 -0.30631,0.06445 -0.42383,0.06445 -0.51245,0 -0.76953,-0.311603 -0.76953,-0.939453 l 0,-2.509765 1.0957,0 0,-0.861328 -1.0957,0 0,-1.019532 z m 14.28906,0 -1.3789,0.158203 0,0.861329 -0.57227,0 0,0.861328 0.57227,0 0,2.691406 c 0,1.117 0.59868,1.675781 1.79296,1.675781 0.18952,0 0.44914,-0.0492 0.77735,-0.144531 l 0,-0.837891 c -0.16411,0.0434 -0.30525,0.06445 -0.42383,0.06445 -0.51139,0 -0.76758,-0.311603 -0.76758,-0.939453 l 0,-2.509765 1.09375,0 0,-0.861328 -1.09375,0 0,-1.019532 z M 35.04883,38.28125 c -0.61197,0 -1.22794,0.117406 -1.85156,0.353516 l 0,0.951172 c 0.54951,-0.303861 1.0921,-0.457032 1.6289,-0.457032 0.60456,0 0.90625,0.266425 0.90625,0.796875 l 0,0.464844 -0.36718,0 c -0.84172,0 -1.48737,0.153004 -1.93946,0.458984 -0.45104,0.30599 -0.67578,0.740368 -0.67578,1.304688 0,0.43516 0.13845,0.78934 0.41797,1.0625 0.27951,0.27316 0.64304,0.410156 1.08984,0.410156 0.52515,0 1.0151,-0.222385 1.47461,-0.666015 l 0.06055,0 c 0.16199,0.443629 0.52552,0.666015 1.08984,0.666015 0.2234,0 0.48228,-0.044 0.77344,-0.130859 l -0.0332,-0.773438 c -0.0741,0.0127 -0.13505,0.01953 -0.18164,0.01953 -0.25728,0 -0.38672,-0.201353 -0.38672,-0.601563 l 0,-2.261719 c 0,-1.06407 -0.66863,-1.597656 -2.00586,-1.597656 z m 6.9043,0 c -0.71149,0 -1.29222,0.360118 -1.74219,1.080078 l 0,-0.96289 -1.37695,0 0,5.111328 1.37695,0 0,-3.216797 c 0.40339,-0.61832 0.82534,-0.925781 1.26367,-0.925781 0.38433,0 0.57617,0.290883 0.57617,0.871093 l 0,3.271485 1.37696,0 0,-3.611328 c 0,-0.499741 -0.1309,-0.894554 -0.39454,-1.183594 -0.26363,-0.28905 -0.6248,-0.433594 -1.08007,-0.433594 z m 4.96289,0 c -0.61197,0 -1.22991,0.117406 -1.85352,0.353516 l 0,0.951172 c 0.5495,-0.303861 1.09406,-0.457032 1.63086,-0.457032 0.60455,0 0.90625,0.266425 0.90625,0.796875 l 0,0.464844 -0.36719,0 c -0.84172,0 -1.48736,0.153004 -1.93945,0.458984 -0.45104,0.30599 -0.67578,0.740368 -0.67578,1.304688 0,0.43516 0.13952,0.78934 0.41797,1.0625 0.27952,0.27316 0.64109,0.410156 1.08789,0.410156 0.52515,0 1.01705,-0.222385 1.47656,-0.666015 l 0.06055,0 c 0.16199,0.443629 0.52552,0.666015 1.08984,0.666015 0.2234,0 0.48228,-0.044 0.77344,-0.130859 l -0.0332,-0.773438 c -0.0741,0.0127 -0.13505,0.01953 -0.18164,0.01953 -0.25729,0 -0.38672,-0.201353 -0.38672,-0.601563 l 0,-2.261719 c 0,-1.06407 -0.66864,-1.597656 -2.00586,-1.597656 z m 9.06445,0 c -0.81314,0 -1.45642,0.239297 -1.92969,0.716797 -0.47327,0.47857 -0.71093,1.131191 -0.71094,1.957031 0,0.81631 0.23499,1.464466 0.70508,1.947266 0.47009,0.4828 1.1051,0.724609 1.90235,0.724609 0.83537,0 1.48945,-0.2375 1.96484,-0.712891 0.47433,-0.47433 0.71289,-1.130209 0.71289,-1.96875 0,-0.81949 -0.23767,-1.468695 -0.71094,-1.947265 -0.47327,-0.4775 -1.11728,-0.716797 -1.93359,-0.716797 z m 5.67969,0 c -0.66384,0 -1.19745,0.245951 -1.59766,0.738281 -0.40022,0.49232 -0.59961,1.146581 -0.59961,1.962891 0,0.77608 0.17836,1.390433 0.53516,1.845703 0.35681,0.45421 0.83953,0.681641 1.44726,0.681641 0.7729,0 1.32648,-0.367666 1.66211,-1.103516 l 0,0.699219 c 0,0.4881 -0.11327,0.83854 -0.33984,1.05664 -0.22658,0.21705 -0.59425,0.326172 -1.10352,0.326172 -0.51562,0 -1.05644,-0.130165 -1.625,-0.390625 l -0.11132,1 c 0.69138,0.24246 1.33482,0.363281 1.92773,0.363282 0.83537,0 1.48191,-0.198664 1.94141,-0.595704 0.27317,-0.24246 0.45549,-0.534806 0.55078,-0.878906 0.0942,-0.34516 0.14258,-0.906297 0.14258,-1.685547 l 0,-3.902343 -1.23829,0 -0.14453,0.517578 C 62.66379,38.493566 62.18214,38.28125 61.66016,38.28125 Z m 19.07226,0 c -0.66385,0 -1.17931,0.134474 -1.54882,0.402344 -0.36951,0.26893 -0.55469,0.645939 -0.55469,1.130859 0,0.34727 0.10806,0.63995 0.32617,0.875 0.21704,0.2361 0.57789,0.454756 1.08398,0.660156 l 0.4668,0.1875 c 0.4648,0.18635 0.69727,0.402641 0.69727,0.650391 0,0.3854 -0.28228,0.578125 -0.84766,0.578125 -0.48386,0 -1.0671,-0.141874 -1.75,-0.427734 l 0,1.009765 c 0.62679,0.18635 1.24813,0.279297 1.86328,0.279297 0.63844,0 1.15854,-0.150649 1.55664,-0.449219 0.39915,-0.29963 0.59766,-0.691195 0.59766,-1.171875 0,-0.36633 -0.11651,-0.665507 -0.35156,-0.898437 -0.23399,-0.23293 -0.65073,-0.462873 -1.25,-0.689453 L 80.6211,40.265625 c -0.42245,-0.16093 -0.63282,-0.358867 -0.63282,-0.591797 0,-0.35363 0.28569,-0.529297 0.85742,-0.529297 0.36316,0 0.82037,0.0944 1.37305,0.28711 l 0,-0.966797 C 81.64489,38.343084 81.14852,38.28125 80.73242,38.28125 Z m 9.44141,0 c -0.81314,0 -1.45642,0.239297 -1.92969,0.716797 -0.47327,0.47857 -0.70898,1.131191 -0.70898,1.957031 0,0.81631 0.23393,1.464466 0.70508,1.947266 0.4701,0.4828 1.10402,0.724609 1.90234,0.724609 0.83431,0 1.48856,-0.2375 1.96289,-0.712891 0.47538,-0.47433 0.71289,-1.130209 0.71289,-1.96875 0,-0.81949 -0.23465,-1.468695 -0.70898,-1.947265 -0.47327,-0.4775 -1.11924,-0.716797 -1.93555,-0.716797 z m 6.91992,0 c -0.72949,0 -1.27406,0.360118 -1.63086,1.080078 l 0,-0.96289 -1.37695,0 0,5.111328 1.37695,0 0,-3.244141 c 0.3441,-0.5548 0.79229,-0.833984 1.3418,-0.833984 0.16728,0 0.34816,0.0365 0.54297,0.107421 l 0,-1.228515 c -0.0836,-0.018 -0.16709,-0.0293 -0.25391,-0.0293 z m 10.46875,0 c -0.81313,0 -1.45642,0.239297 -1.92969,0.716797 -0.47327,0.47857 -0.71093,1.131191 -0.71093,1.957031 0,0.81631 0.23588,1.464466 0.70703,1.947266 0.47009,0.4828 1.10403,0.724609 1.90234,0.724609 0.83431,0 1.48856,-0.2375 1.96289,-0.712891 0.47539,-0.47433 0.71289,-1.130209 0.71289,-1.96875 0,-0.81949 -0.23571,-1.468695 -0.70898,-1.947265 -0.47327,-0.4775 -1.11924,-0.716797 -1.93555,-0.716797 z m 7.0293,0 c -0.71044,0 -1.29026,0.360118 -1.74024,1.080078 l 0,-0.96289 -1.3789,0 0,5.111328 1.3789,0 0,-3.216797 c 0.40339,-0.61832 0.82445,-0.925781 1.26172,-0.925781 0.3854,0 0.57813,0.290883 0.57813,0.871093 l 0,3.271485 1.37695,0 0,-3.611328 c 0,-0.499741 -0.13284,-0.894554 -0.39648,-1.183594 -0.26363,-0.28905 -0.62375,-0.433594 -1.08008,-0.433594 z m -38.95117,0.117188 0,5.111328 1.37695,0 0,-5.111328 -1.37695,0 z m 26.64257,0 0,5.111328 1.37891,0 0,-5.111328 -1.37891,0 z m -46.30273,0.746093 c 0.36633,0 0.65364,0.159492 0.86328,0.482422 0.20857,0.32292 0.31445,0.7625 0.31445,1.318359 0,1.21335 -0.39554,1.820313 -1.1875,1.820313 -0.35998,0 -0.64404,-0.162181 -0.85156,-0.488281 -0.20858,-0.3261 -0.3125,-0.766406 -0.3125,-1.322266 0,-0.5622 0.10481,-1.005205 0.31446,-1.328125 0.20964,-0.32293 0.49621,-0.482422 0.85937,-0.482422 z m 34.19336,0 c 0.36633,0 0.65364,0.159492 0.86328,0.482422 0.20963,0.32292 0.31445,0.7625 0.31445,1.318359 0,1.21335 -0.39464,1.820313 -1.18554,1.820313 -0.35998,0 -0.646,-0.162181 -0.85352,-0.488281 C 89.10498,41.951244 89,41.510938 89,40.955078 c 0,-0.5622 0.10482,-1.005205 0.31445,-1.328125 0.20964,-0.32293 0.49728,-0.482422 0.85938,-0.482422 z m 17.38867,0 c 0.36528,0 0.65364,0.159492 0.86328,0.482422 0.20964,0.32292 0.31446,0.7625 0.31446,1.318359 0,1.21335 -0.39465,1.820313 -1.18555,1.820313 -0.35998,0 -0.64494,-0.162181 -0.85352,-0.488281 -0.20751,-0.3261 -0.31054,-0.766406 -0.31054,-1.322266 0,-0.5622 0.10287,-1.005205 0.3125,-1.328125 0.20964,-0.32293 0.49621,-0.482422 0.85937,-0.482422 z m -45.49805,0.01367 c 0.36316,0 0.71052,0.18663 1.04297,0.5625 l 0,1.886719 c -0.36634,0.53362 -0.77122,0.798828 -1.21484,0.798828 -0.64268,0 -0.96484,-0.498577 -0.96484,-1.498047 0,-0.53362 0.10424,-0.958821 0.30859,-1.275391 0.2054,-0.31658 0.48084,-0.474609 0.82812,-0.474609 z m 9.40821,0.01758 c 0.37904,0 0.73501,0.185904 1.0664,0.558594 l 0,2.025391 c -0.37163,0.52409 -0.76407,0.787109 -1.17382,0.787109 -0.6702,0 -1.00391,-0.522289 -1.00391,-1.568359 0,-0.5495 0.0996,-0.988354 0.30078,-1.314454 0.20222,-0.326099 0.47281,-0.488281 0.81055,-0.488281 z m -36.06641,2.00586 0.32617,0 0,1.039062 c -0.33775,0.31339 -0.66837,0.470703 -0.99023,0.470703 -0.18953,0 -0.35041,-0.0652 -0.47852,-0.193359 -0.12917,-0.12917 -0.19336,-0.287043 -0.19336,-0.476563 0,-0.55903 0.44551,-0.839843 1.33594,-0.839843 z m 11.86719,0 0.32617,0 0,1.039062 c -0.33775,0.31339 -0.6673,0.470703 -0.99023,0.470703 -0.18952,0 -0.34935,-0.0652 -0.47852,-0.193359 -0.12917,-0.12917 -0.19336,-0.287043 -0.19336,-0.476563 0,-0.55903 0.44551,-0.839843 1.33594,-0.839843 z"
     id="path2027-6"
     inkscape:connector-curvature="0" /><path
     style="clip-rule:evenodd;fill:#ffffff;fill-opacity:1;fill-rule:nonzero"
     d="m 51.80899,359.90232 4.51135,13.59543 c 0.42263,1.26789 1.18754,1.90019 2.29659,1.90019 1.0944,0 1.85276,-0.62705 2.27614,-1.88229 l 4.53181,-13.61333 -3.48325,0 -3.37073,10.88965 -3.26076,-10.88965 -3.50115,0 z m 13.87675,0 0,11.51367 c 0,0.96313 0.10248,1.65622 0.3069,2.07921 0.5544,1.1529 1.59196,1.72884 3.10987,1.72884 l 4.24537,0 c 1.47381,0 2.50314,-0.56153 3.08685,-1.68537 0.21896,-0.42312 0.32736,-1.13886 0.32736,-2.1457 l 0,-11.49065 -3.28378,0 0,11.3372 -0.0205,0.10999 c -0.0731,0.37965 -0.44659,0.5703 -1.1176,0.5703 l -2.23267,0 c -0.70045,0 -1.07994,-0.20505 -1.13806,-0.61379 l 0,-11.40369 -3.28378,0 z m 12.5878,0 0,11.57761 c 0,1.19661 0.24794,2.09153 0.74422,2.68276 0.49591,0.59099 1.33446,0.93646 2.51654,1.03833 0.16033,0.014 0.34893,0.023 0.56776,0.023 l 6.1072,0 0.023,-3.30423 -5.84378,0 c -0.55478,0 -0.83374,-0.23351 -0.83374,-0.70074 l 0,-11.31675 -3.28121,0 z m 10.06871,0 0,3.30424 3.26076,0 0,12.01748 3.28377,0 0,-12.01748 3.30423,0 0,-3.30424 -9.84876,0 z"
     id="path42-2"
     inkscape:connector-curvature="0" /><path
     inkscape:connector-curvature="0"
     style="fill:#ffffff;fill-rule:nonzero"
     d="m 98.235,352.593 c 0,0.24 0.044,0.464 0.136,0.664 0.088,0.204 0.212,0.38 0.368,0.528 0.152,0.152 0.332,0.264 0.54,0.348 0.204,0.084 0.42,0.124 0.653,0.124 0.228,0 0.444,-0.04 0.652,-0.124 0.204,-0.084 0.384,-0.196 0.54,-0.348 0.16,-0.148 0.284,-0.324 0.372,-0.528 0.092,-0.2 0.136,-0.424 0.136,-0.664 0,-0.241 -0.044,-0.461 -0.136,-0.665 -0.088,-0.2 -0.212,-0.376 -0.372,-0.528 -0.156,-0.148 -0.336,-0.264 -0.54,-0.348 -0.208,-0.08 -0.424,-0.124 -0.652,-0.124 -0.233,0 -0.449,0.044 -0.653,0.124 -0.208,0.084 -0.388,0.2 -0.54,0.348 -0.156,0.152 -0.28,0.328 -0.368,0.528 -0.092,0.204 -0.136,0.424 -0.136,0.665 z m -1.641,0 c 0,-0.449 0.084,-0.865 0.248,-1.253 0.164,-0.384 0.396,-0.72 0.689,-1.008 0.292,-0.289 0.644,-0.517 1.052,-0.677 0.408,-0.164 0.856,-0.244 1.349,-0.244 0.484,0 0.932,0.08 1.34,0.244 0.412,0.16 0.764,0.388 1.061,0.677 0.296,0.288 0.528,0.624 0.692,1.008 0.168,0.388 0.248,0.804 0.248,1.253 0,0.448 -0.08,0.868 -0.248,1.252 -0.164,0.388 -0.396,0.724 -0.692,1.012 -0.297,0.289 -0.649,0.513 -1.061,0.677 -0.408,0.164 -0.856,0.244 -1.34,0.244 -0.493,0 -0.941,-0.08 -1.349,-0.244 -0.408,-0.164 -0.76,-0.388 -1.052,-0.677 -0.293,-0.288 -0.525,-0.624 -0.689,-1.012 -0.164,-0.384 -0.248,-0.804 -0.248,-1.252 z"
     id="path2248" /><path
     inkscape:connector-curvature="0"
     style="fill:#ffffff;fill-rule:nonzero"
     d="m 99.714,315.474 0,3.529 1.412,0 0,0.997 -2.589,0 0,-4.526 1.177,0 z"
     id="path2323" /></svg>